<?xml version="1.0" encoding="UTF-8" standalone="no"?>
<svg
   viewBox="0 0 512 512"
   version="1.1"
   id="svg4"
   sodipodi:docname="icon_download_json.svg"
   inkscape:version="1.2.2 (732a01da63, 2022-12-09)"
   xmlns:inkscape="http://www.inkscape.org/namespaces/inkscape"
   xmlns:sodipodi="http://sodipodi.sourceforge.net/DTD/sodipodi-0.dtd"
   xmlns="http://www.w3.org/2000/svg"
   xmlns:svg="http://www.w3.org/2000/svg">
  <defs
     id="defs8" />
  <sodipodi:namedview
     id="namedview6"
     pagecolor="#505050"
     bordercolor="#ffffff"
     borderopacity="1"
     inkscape:showpageshadow="0"
     inkscape:pageopacity="0"
     inkscape:pagecheckerboard="1"
     inkscape:deskcolor="#505050"
     showgrid="false"
     inkscape:zoom="6.910864"
     inkscape:cx="176.60599"
     inkscape:cy="448.93084"
     inkscape:window-width="3840"
     inkscape:window-height="2066"
     inkscape:window-x="5749"
     inkscape:window-y="877"
     inkscape:window-maximized="1"
     inkscape:current-layer="svg4" />
  <!--!Font Awesome Free 6.6.0 by @fontawesome - https://fontawesome.com License - https://fontawesome.com/license/free Copyright 2024 Fonticons, Inc.-->
  <path
     id="path2"
     d="M 256 0 C 238.30002 0 224 14.300018 224 32 L 224 274.69922 L 150.59961 201.30078 C 138.09962 188.80079 117.80077 188.80079 105.30078 201.30078 C 92.800794 213.80077 92.800794 234.09962 105.30078 246.59961 L 233.30078 374.59961 C 245.80077 387.0996 266.09962 387.0996 278.59961 374.59961 L 406.59961 246.59961 C 419.0996 234.09962 419.0996 213.80077 406.59961 201.30078 C 394.09962 188.80079 373.80077 188.80079 361.30078 201.30078 L 288 274.69922 L 288 32 C 288 14.300018 273.69998 0 256 0 z M 64 352 C 28.700035 352 0 380.70004 0 416 L 0 448 C 0 483.29996 28.700035 512 64 512 L 448 512 C 483.29996 512 512 483.29996 512 448 L 512 416 C 512 380.70004 483.29996 352 448 352 L 346.5 352 L 307.38086 391.11914 L 307.74023 391.11914 L 358.7832 467.41992 L 358.7832 391.11914 L 371.11328 391.11914 L 371.11328 488.30078 L 357.92188 488.30078 L 306.87891 411.93359 L 306.87891 488.30078 L 294.54883 488.30078 L 294.54883 403.01172 C 287.7978 408.13776 280.28518 411.74995 272.43164 413.83789 C 276.21674 421.47194 278.10938 430.13915 278.10938 439.8418 C 278.10938 449.69691 276.11998 458.51495 272.14258 466.29297 C 268.16518 474.07099 262.53018 479.9706 255.23828 483.99219 C 247.94638 487.96959 240.08155 489.95703 231.64062 489.95703 C 222.49261 489.95703 214.31679 487.74746 207.11328 483.32812 C 199.90977 478.90879 194.45052 472.87787 190.73828 465.23242 C 187.02604 457.58698 185.16992 449.49806 185.16992 440.96875 C 185.16992 424.83819 189.50217 412.22101 198.16406 403.11719 C 201.26956 399.83741 204.70395 397.15664 208.45703 395.05273 L 165.5 352 L 64 352 z M 208.45703 395.05273 L 210.69922 397.30078 C 212.94231 399.54387 215.3481 401.51294 217.81836 403.35352 C 222.08465 401.432 226.73388 400.4668 231.77148 400.4668 C 238.17951 400.4668 243.94779 402.10079 249.07422 405.37109 C 253.26833 407.98793 256.61758 411.50789 259.1543 415.89844 C 263.62851 415.67517 268.07457 414.99626 272.43164 413.83789 C 272.42388 413.82225 272.41598 413.80665 272.4082 413.79102 C 268.65177 406.10138 263.17226 400.11292 255.96875 395.82617 C 248.76524 391.53942 240.67632 389.39648 231.70508 389.39648 C 222.9169 389.39648 215.1721 391.2884 208.45703 395.05273 z M 259.1543 415.89844 C 244.66303 416.62157 230.01301 412.43967 217.81836 403.35352 C 214.37472 404.90452 211.18134 407.07598 208.24023 409.87891 C 201.69962 416.11016 198.42773 426.53998 198.42773 441.16797 C 198.42773 452.8792 201.56635 462.11538 207.8418 468.87695 C 214.16144 475.59434 222.07266 478.95312 231.57422 478.95312 C 241.25255 478.95312 249.20624 475.54991 255.4375 468.74414 C 261.71295 461.93837 264.85156 452.2821 264.85156 439.77539 C 264.85156 431.86479 263.50243 424.97146 260.80664 419.09375 C 260.30587 417.97536 259.74491 416.92068 259.1543 415.89844 z M 294.54883 403.01172 C 296.85193 401.26298 299.0969 399.4031 301.19922 397.30078 L 307.38086 391.11914 L 294.54883 391.11914 L 294.54883 403.01172 z M 132.07227 389.46289 C 139.27578 389.46289 145.61769 390.63236 151.09766 392.97461 C 156.62182 395.27266 160.86327 398.67588 163.82422 403.18359 C 166.78517 407.69131 168.37669 412.79516 168.59766 418.49609 L 156.26758 419.42578 C 155.60468 413.28291 153.35068 408.64163 149.50586 405.50391 C 145.70523 402.36618 140.07023 400.79688 132.60156 400.79688 C 124.82354 400.79688 119.14606 402.2329 115.56641 405.10547 C 112.03094 407.93384 110.26172 411.35927 110.26172 415.38086 C 110.26172 418.87213 111.522 421.74614 114.04102 424 C 116.51584 426.25386 122.96882 428.57255 133.39844 430.95898 C 143.87225 433.30123 151.05239 435.35727 154.94141 437.125 C 160.59815 439.73241 164.77491 443.04677 167.4707 447.06836 C 170.1665 451.04576 171.51367 455.64066 171.51367 460.85547 C 171.51367 466.02609 170.03322 470.90975 167.07227 475.50586 C 164.11131 480.05777 159.84765 483.61648 154.2793 486.17969 C 148.75513 488.69871 142.52429 489.95703 135.58594 489.95703 C 126.79147 489.95703 119.41141 488.67649 113.44531 486.11328 C 107.52341 483.55007 102.85992 479.70455 99.457031 474.57812 C 96.098339 469.40751 94.33107 463.57454 94.154297 457.07812 L 106.28516 456.01758 C 106.85967 460.87884 108.18463 464.8779 110.26172 468.01562 C 112.383 471.10916 115.65489 473.62776 120.07422 475.57227 C 124.49355 477.47258 129.46412 478.42383 134.98828 478.42383 C 139.89374 478.42383 144.22599 477.69471 147.98242 476.23633 C 151.73885 474.77795 154.52206 472.78855 156.33398 470.26953 C 158.1901 467.70632 159.11914 464.92116 159.11914 461.91602 C 159.11914 458.86668 158.23453 456.21675 156.4668 453.96289 C 154.69906 451.66484 151.78258 449.74208 147.7168 448.19531 C 145.10939 447.17887 139.34111 445.60956 130.41406 443.48828 C 121.48701 441.32281 115.23396 439.28898 111.6543 437.38867 C 107.014 434.95804 103.5461 431.95466 101.24805 428.375 C 98.994188 424.75115 97.867188 420.70571 97.867188 416.24219 C 97.867188 411.33673 99.25879 406.76404 102.04297 402.52148 C 104.82715 398.23473 108.89284 394.98701 114.24023 392.77734 C 119.58763 390.56768 125.53166 389.46289 132.07227 389.46289 z M 64.654297 391.11914 L 77.515625 391.11914 L 77.515625 457.34375 C 77.515625 465.47532 76.521902 471.7728 74.533203 476.23633 C 72.588697 480.69985 69.472298 484.10111 65.185547 486.44336 C 60.942989 488.7856 55.948256 489.95703 50.203125 489.95703 C 41.673816 489.95703 35.133942 487.50507 30.582031 482.59961 C 26.074313 477.69415 23.909164 470.40294 24.085938 460.72461 L 35.685547 459.13281 C 35.9949 466.55729 37.388456 471.63892 39.863281 474.37891 C 42.338107 477.11889 45.761581 478.49023 50.136719 478.49023 C 53.362831 478.49023 56.147989 477.76111 58.490234 476.30273 C 60.83248 474.80016 62.446212 472.78855 63.330078 470.26953 C 64.213944 467.70632 64.654297 463.64062 64.654297 458.07227 L 64.654297 391.11914 z M 432 408 A 24 24 0 0 1 432 456 A 24 24 0 0 1 432 408 z " />
</svg>
