<?xml version="1.0" encoding="UTF-8" standalone="no"?>
<svg
   viewBox="0 0 512 512"
   version="1.1"
   id="svg4"
   sodipodi:docname="icon_download_xml.svg"
   inkscape:version="1.2.2 (732a01da63, 2022-12-09)"
   xmlns:inkscape="http://www.inkscape.org/namespaces/inkscape"
   xmlns:sodipodi="http://sodipodi.sourceforge.net/DTD/sodipodi-0.dtd"
   xmlns="http://www.w3.org/2000/svg"
   xmlns:svg="http://www.w3.org/2000/svg">
  <defs
     id="defs8" />
  <sodipodi:namedview
     id="namedview6"
     pagecolor="#505050"
     bordercolor="#ffffff"
     borderopacity="1"
     inkscape:showpageshadow="0"
     inkscape:pageopacity="0"
     inkscape:pagecheckerboard="1"
     inkscape:deskcolor="#505050"
     showgrid="false"
     inkscape:zoom="6.910864"
     inkscape:cx="176.60599"
     inkscape:cy="448.93084"
     inkscape:window-width="3840"
     inkscape:window-height="2066"
     inkscape:window-x="5749"
     inkscape:window-y="877"
     inkscape:window-maximized="1"
     inkscape:current-layer="svg4" />
  <!--!Font Awesome Free 6.6.0 by @fontawesome - https://fontawesome.com License - https://fontawesome.com/license/free Copyright 2024 Fonticons, Inc.-->
  <path
     id="path2"
     d="M 256 0 C 238.30002 0 224 14.300018 224 32 L 224 274.69922 L 150.59961 201.30078 C 138.09962 188.80079 117.80077 188.80079 105.30078 201.30078 C 92.800794 213.80077 92.800794 234.09962 105.30078 246.59961 L 233.30078 374.59961 C 245.80077 387.0996 266.09962 387.0996 278.59961 374.59961 L 406.59961 246.59961 C 419.0996 234.09962 419.0996 213.80077 406.59961 201.30078 C 394.09962 188.80079 373.80077 188.80079 361.30078 201.30078 L 288 274.69922 L 288 32 C 288 14.300018 273.69998 0 256 0 z M 64 352 C 28.700035 352 0 380.70004 0 416 L 0 448 C 0 483.29996 28.700035 512 64 512 L 448 512 C 483.29996 512 512 483.29996 512 448 L 512 416 C 512 380.70004 483.29996 352 448 352 L 346.5 352 L 301.19922 397.30078 C 290.03389 408.46611 275.77657 414.60863 261.18945 415.80078 L 261.18945 478.09375 L 310.70312 478.09375 L 310.70312 489.95703 L 247.88672 489.95703 L 247.88672 415.47852 C 240.6749 414.56638 233.59437 412.45602 226.9707 409.08789 L 226.9707 489.95703 L 214.14648 489.95703 L 214.14648 405.81445 L 184.93164 489.95703 L 172.93164 489.95703 L 143.85352 404.37305 L 143.85352 489.95703 L 131.03125 489.95703 L 131.03125 389.42383 L 151.05469 389.42383 L 174.85156 460.60742 C 177.04603 467.23654 178.64655 472.19658 179.65234 475.48828 C 180.7953 471.83084 182.57694 466.45935 185 459.37305 L 207.47266 394.06641 L 165.5 352 L 64 352 z M 207.47266 394.06641 L 210.69922 397.30078 C 215.60067 402.20223 221.11127 406.10838 226.9707 409.08789 L 226.9707 389.42383 L 209.07031 389.42383 L 207.47266 394.06641 z M 247.88672 415.47852 C 252.30233 416.03699 256.75733 416.163 261.18945 415.80078 L 261.18945 389.42383 L 247.88672 389.42383 L 247.88672 415.47852 z M 32.142578 389.42383 L 47.982422 389.42383 L 66.224609 415.20898 C 70.019208 420.558 72.716274 424.6725 74.316406 427.55273 C 76.556591 423.89529 79.208375 420.07708 82.271484 416.09961 L 102.50195 389.42383 L 116.97266 389.42383 L 81.654297 436.81055 L 119.71484 489.95703 L 103.25586 489.95703 L 77.951172 454.0918 C 76.533912 452.03448 75.071196 449.79415 73.5625 447.37109 C 71.322315 451.02854 69.721798 453.54252 68.761719 454.91406 L 43.525391 489.95703 L 27.546875 489.95703 L 66.429688 437.56445 L 32.142578 389.42383 z M 432 408 A 24 24 0 0 1 432 456 A 24 24 0 0 1 432 408 z " />
</svg>
